#!OML:ASF H:\Terrain\Patient Classification 1\Animal1\Tuesday\Animal1.ASF
:FULLY-SPECIFIED
:DEGREES
1426
root 16.1129 15.9236 -23.5855 -345.256 53.327 727.515
lowerback -4.58685 1.30748 -1.02798
upperback -5.12547 1.83007 -1.07394
thorax -2.70081 0.963947 -0.491498
lowerneck -1.56386 -9.89792 -8.44512
upperneck 19.1957 -15.555 15.5238
head 8.06142 -6.78685 5.25091
rclavicle 5.93869e-015 -8.34896e-015
rhumerus -41.2774 9.61474 -89.7782
rradius 34.3006
rwrist -10.5894
rhand -15.3057 30.0862
rfingers 7.12502
rthumb 10.8699 0.387545
lclavicle 5.93869e-015 -8.34896e-015
lhumerus -43.2941 11.0352 75.2934
lradius 35.0951
lwrist -26.7434
lhand 5.70386 43.2992
lfingers 7.12502
lthumb 31.0411 70.6928
rfemur -25.3573 15.9632 27.6889
rtibia 28.8663
rfoot -16.2581 -31.879
rtoes 42.0312
lfemur -25.2381 -0.536073 -22.4629
ltibia 68.4617
lfoot 5.42583 2.08611
ltoes 4.11357
1427
root 16.1905 15.9212 -23.5006 -345.186 52.1403 727.648
lowerback -4.59393 1.46442 -1.40262
upperback -5.088 2.04714 -1.07971
thorax -2.67141 1.08355 -0.282747
lowerneck -1.5421 -9.82063 -8.42912
upperneck 19.1334 -15.4503 15.5595
head 8.02353 -6.73949 5.27316
rclavicle -6.28657e-014 -1.35174e-014
rhumerus -40.998 9.85306 -89.9137
rradius 34.9991
rwrist -10.278
rhand -15.5365 30.7258
rfingers 7.12502
rthumb 10.6472 1.01555
lclavicle -6.28657e-014 -1.35174e-014
lhumerus -43.4505 11.5109 74.9504
lradius 34.9929
lwrist -27.4754
lhand 5.56577 42.8984
lfingers 7.12502
lthumb 30.9095 70.3171
rfemur -24.846 16.4716 27.6571
rtibia 28.885
rfoot -16.412 -31.5047
rtoes 41.5096
lfemur -26.3065 -1.31343 -22.6339
ltibia 69.1401
lfoot 4.52721 2.347
ltoes 7.04109
1428
root 16.2688 15.9145 -23.4008 -345.204 51.1135 727.931
lowerback -4.51881 1.58448 -1.97285
upperback -4.97555 2.21712 -1.10421
thorax -2.61972 1.18385 0.0136963
lowerneck -1.65409 -9.78753 -8.40562
upperneck 19.2459 -15.4173 15.5398
head 8.07336 -6.71448 5.26206
rclavicle -2.23633e-014 -1.59028e-015
rhumerus -40.7758 10.2862 -90.1072
rradius 35.7137
rwrist -10.2202
rhand -16.2155 30.5667
rfingers 7.12502
rthumb 9.99228 0.823873
lclavicle -2.23633e-014 -1.59028e-015
lhumerus -43.5989 11.3195 74.9671
lradius 34.9981
lwrist -27.5007
lhand 5.32995 42.7965
lfingers 7.12502
lthumb 30.6846 70.2576
rfemur -24.0432 17.6074 27.5552
rtibia 28.8591
rfoot -16.7098 -31.8139
rtoes 41.167
lfemur -26.9822 -2.14643 -22.8115
ltibia 69.5392
lfoot 3.55631 2.5135
ltoes 5.65234
1429
root 16.3425 15.9059 -23.3235 -345.408 49.8686 727.346
lowerback -4.7137 1.83353 -1.70666
upperback -5.05681 2.54696 -1.14035
thorax -2.58672 1.34091 -0.159936
lowerneck -1.76963 -9.70019 -8.31154
upperneck 19.4429 -15.3286 15.5499
head 8.14125 -6.65106 5.25792
rclavicle 2.49972e-014 -1.07344e-014
rhumerus -40.5801 10.5707 -90.304
rradius 36.5628
rwrist -10.1394
rhand -16.6376 30.8466
rfingers 7.12502
rthumb 9.58506 1.08459
lclavicle 2.49972e-014 -1.07344e-014
lhumerus -43.7781 11.3582 74.8222
lradius 35.0255
lwrist -27.7458
lhand 4.59395 43.0349
lfingers 7.12502
lthumb 29.9826 70.6254
rfemur -23.8958 18.385 27.8679
rtibia 28.8762
rfoot -16.1424 -31.6024
rtoes 39.698
lfemur -28.3928 -2.61842 -22.5069
ltibia 69.8861
lfoot 3.00744 2.69047
ltoes 5.61048
1430
root 16.418 15.8974 -23.245 -345.987 48.8626 726.86
lowerback -4.46419 1.96637 -1.38616
upperback -5.00371 2.70738 -1.14454
thorax -2.65695 1.40934 -0.347663
lowerneck -1.86859 -9.54827 -8.41247
upperneck 19.642 -15.1645 15.6998
head 8.22357 -6.55679 5.34374
rclavicle -7.64079e-014 -1.03368e-014
rhumerus -40.3539 11.1842 -90.5411
rradius 37.4622
rwrist -10.5023
rhand -16.679 31.5365
rfingers 7.12502
rthumb 9.54505 1.77266
lclavicle -7.64079e-014 -1.03368e-014
lhumerus -43.9881 11.928 74.3854
lradius 34.9926
lwrist -28.3467
lhand 4.07078 43.1236
lfingers 7.12502
lthumb 29.4833 70.8032
rfemur -23.1875 18.8937 28.3708
rtibia 28.9353
rfoot -15.4857 -31.6671
rtoes 37.9298
lfemur -29.2282 -3.26871 -22.1851
ltibia 70.0296
lfoot 2.13154 3.08929
ltoes 4.01472
1431
root 16.4907 15.8917 -23.1574 -346.263 48.0381 726.952
lowerback -4.091 1.72097 -1.64357
upperback -4.90321 2.37669 -0.934852
thorax -2.77929 1.25303 -0.00619209
lowerneck -2.09167 -9.16354 -8.97068
upperneck 19.9564 -14.653 15.8436
head 8.35142 -6.32619 5.54062
rclavicle -1.76173e-014 1.15295e-014
rhumerus -40.0171 12.7535 -90.8002
rradius 38.2289
rwrist -11.1465
rhand -16.7839 32.0284
rfingers 7.12502
rthumb 9.44388 2.26002
lclavicle -1.76173e-014 1.15295e-014
lhumerus -44.514 12.8715 74.042
lradius 35.0957
lwrist -28.4129
lhand 3.43843 43.5381
lfingers 7.12502
lthumb 28.8794 71.3226
rfemur -22.3852 19.4042 28.5537
rtibia 29.1112
rfoot -15.252 -31.77
rtoes 37.0488
lfemur -29.8316 -4.16529 -22.1706
ltibia 69.9541
lfoot 0.953819 3.80364
ltoes -1.2268
1432
root 16.5498 15.8957 -23.0912 -346.143 46.3186 726.628
lowerback -4.15454 1.81602 -1.61825
upperback -5.04838 2.50551 -0.821943
thorax -2.90028 1.32054 0.0960037
lowerneck -2.29433 -8.81526 -9.19173
upperneck 20.2153 -14.1802 15.8551
head 8.42373 -6.10301 5.63369
rclavicle -6.77856e-014 -1.19271e-015
rhumerus -39.6217 13.9605 -91.1075
rradius 38.8877
rwrist -11.5073
rhand -17.0921 32.1878
rfingers 7.12502
rthumb 9.14644 2.40614
lclavicle -6.77856e-014 -1.19271e-015
lhumerus -44.8986 13.1039 73.9411
lradius 35.1978
lwrist -27.7661
lhand 2.18144 44.2544
lfingers 7.12502
lthumb 27.6781 72.2378
rfemur -22.6742 19.9884 28.4938
rtibia 29.468
rfoot -16.7993 -30.0814
rtoes 39.2401
lfemur -31.2996 -4.2742 -22.0507
ltibia 69.7337
lfoot -0.0144661 3.87876
ltoes -1.94684
1433
root 16.6251 15.9078 -23.0137 -346.13 44.9216 726.616
lowerback -4.27809 2.26644 -1.54908
upperback -5.08844 3.1017 -1.18172
thorax -2.85822 1.61061 -0.298989
lowerneck -1.89539 -8.91214 -8.5151
upperneck 20.0753 -14.3421 15.7597
head 8.26817 -6.1588 5.48521
rclavicle 6.21202e-016 -1.19271e-015
rhumerus -39.418 13.1864 -91.2525
rradius 39.4867
rwrist -11.3588
rhand -17.5234 32.2012
rfingers 7.12502
rthumb 8.73026 2.40171
lclavicle 6.21202e-016 -1.19271e-015
lhumerus -44.7482 12.1634 73.9061
lradius 34.9565
lwrist -27.4932
lhand 1.62522 43.9466
lfingers 7.12502
lthumb 27.1461 72.0143
rfemur -22.3925 20.6806 28.3411
rtibia 29.8449
rfoot -20.3202 -28.2286
rtoes 43.8433
lfemur -32.0956 -4.75462 -22.1235
ltibia 69.1866
lfoot -1.08155 2.82612
ltoes 3.16852
1434
root 16.7152 15.9143 -22.9279 -346.167 43.7311 726.791
lowerback -4.38348 2.77244 -1.48292
upperback -5.14987 3.77112 -1.63279
thorax -2.83416 1.93657 -0.784017
lowerneck -1.06788 -9.09878 -7.87174
upperneck 19.7354 -14.6196 15.7715
head 7.99394 -6.29263 5.3864
rclavicle -4.15087e-014 -1.98785e-016
rhumerus -39.4851 11.9334 -91.2898
rradius 40.0913
rwrist -11.4258
rhand -17.91 32.376
rfingers 7.12502
rthumb 8.35715 2.56132
lclavicle -4.15087e-014 -1.98785e-016
lhumerus -44.6843 11.0826 73.8999
lradius 34.7004
lwrist -27.5724
lhand 2.09496 42.3111
lfingers 7.12502
lthumb 27.5954 70.3078
rfemur -21.702 21.0422 28.2663
rtibia 30.1144
rfoot -22.2134 -27.3996
rtoes 45.8436
lfemur -32.5107 -5.4249 -22.3229
ltibia 68.4736
lfoot -1.6825 5.0677
ltoes -5.27077
1435
root 16.7967 15.909 -22.8507 -346.657 42.5132 726.332
lowerback -4.21944 2.96823 -1.12205
upperback -5.1884 4.01964 -1.59117
thorax -2.94336 2.04908 -0.948107
lowerneck -0.71982 -8.90158 -8.05458
upperneck 19.6939 -14.3714 15.962
head 7.90945 -6.19473 5.52643
rclavicle -7.95139e-015 1.78906e-015
rhumerus -39.3551 12.2117 -91.5062
rradius 40.5072
rwrist -11.8587
rhand -18.5599 32.3475
rfingers 7.12502
rthumb 7.72995 2.50874
lclavicle -7.95139e-015 1.78906e-015
lhumerus -45.0626 10.9011 73.8455
lradius 34.7839
lwrist -27.4801
lhand 2.50083 40.2675
lfingers 7.12502
lthumb 27.9835 68.2015
rfemur -21.0872 21.4107 28.6892
rtibia 30.2767
rfoot -20.8391 -27.2853
rtoes 44.1947
lfemur -33.1013 -5.89013 -21.9535
ltibia 67.801
lfoot -2.1431 5.97296
ltoes -2.78796
1436
root 16.8728 15.8998 -22.7802 -347.119 41.0937 725.954
lowerback -3.83142 2.99339 -0.904396
upperback -5.1387 4.0418 -1.41273
thorax -3.10601 2.05342 -0.906713
lowerneck -1.10739 -8.55865 -8.50534
upperneck 20.0732 -13.9299 16.0549
head 8.08319 -5.98167 5.67125
rclavicle 3.07868e-014 -7.95139e-015
rhumerus -38.8605 13.3735 -91.899
rradius 40.6897
rwrist -12.0774
rhand -18.9446 32.3613
rfingers 7.12502
rthumb 7.3586 2.50924
lclavicle 3.07868e-014 -7.95139e-015
lhumerus -45.5935 11.3874 73.5564
lradius 35.079
lwrist -27.3394
lhand 2.44553 39.2288
lfingers 7.12502
lthumb 27.9306 67.1714
rfemur -20.5058 21.9718 28.9765
rtibia 30.3255
rfoot -19.821 -27.2011
rtoes 42.0085
lfemur -33.6517 -6.2345 -21.6666
ltibia 67.0814
lfoot -3.34757 6.63626
ltoes -5.22132
1437
root 16.9468 15.8878 -22.7077 -346.939 39.9122 726.103
lowerback -3.62025 2.99853 -0.911125
upperback -5.19302 4.04172 -1.5142
thorax -3.27404 2.05101 -1.02201
lowerneck -1.58453 -8.37269 -8.6082
upperneck 20.4585 -13.6973 16.0018
head 8.27013 -5.84815 5.68266
rclavicle 7.14631e-014 -1.39149e-014
rhumerus -38.307 13.7666 -92.1554
rradius 40.8806
rwrist -11.8312
rhand -18.9858 33.0746
rfingers 7.12502
rthumb 7.31886 3.22117
lclavicle 7.14631e-014 -1.39149e-014
lhumerus -45.9527 11.6626 73.2035
lradius 35.3394
lwrist -27.0859
lhand 2.18662 39.0613
lfingers 7.12502
lthumb 27.6831 67.044
rfemur -20.1842 22.6271 28.8039
rtibia 30.2833
rfoot -19.1003 -27.382
rtoes 39.8392
lfemur -34.5111 -6.97337 -21.6986
ltibia 66.2706
lfoot -4.18516 7.24427
ltoes -7.68896
1438
root 17.015 15.8754 -22.6336 -346.549 38.3588 726.191
lowerback -3.59292 3.29824 -0.916463
upperback -5.35957 4.43791 -1.67602
thorax -3.44744 2.24711 -1.19143
lowerneck -1.69838 -8.33566 -8.70807
upperneck 20.4729 -13.6306 15.9377
head 8.28851 -5.82693 5.6791
rclavicle -2.47487e-014 1.19271e-014
rhumerus -37.8707 13.7595 -92.1536
rradius 41.0776
rwrist -11.8289
rhand -19.7015 34.0749
rfingers 7.12502
rthumb 6.628 4.19865
lclavicle -2.47487e-014 1.19271e-014
lhumerus -46.1099 11.4882 73.2197
lradius 35.4479
lwrist -26.8246
lhand 3.16199 39.3485
lfingers 7.12502
lthumb 28.6153 67.1778
rfemur -20.1271 23.0842 28.5699
rtibia 30.2484
rfoot -17.739 -27.2576
rtoes 36.717
lfemur -35.596 -7.40074 -21.6941
ltibia 65.3543
lfoot -5.03713 7.50146
ltoes -5.63238
1439
root 17.0941 15.8734 -22.544 -346.288 37.0845 726.208
lowerback -3.83739 3.59344 -0.877005
upperback -5.40061 4.8341 -1.75628
thorax -3.33891 2.44334 -1.27724
lowerneck -1.62637 -8.35373 -8.95871
upperneck 20.2793 -13.6259 15.9655
head 8.22895 -5.85678 5.7295
rclavicle -1.25731e-014 -1.15295e-014
rhumerus -37.5736 14.0879 -92.187
rradius 41.3261
rwrist -12.373
rhand -20.3828 33.5674
rfingers 7.12502
rthumb 5.97022 3.67152
lclavicle -1.25731e-014 -1.15295e-014
lhumerus -46.2581 11.1009 73.4389
lradius 35.6357
lwrist -26.5887
lhand 5.30996 40.7056
lfingers 7.12502
lthumb 30.6656 68.1703
rfemur -19.9376 23.1999 28.4619
rtibia 30.3458
rfoot -17.1471 -26.9802
rtoes 34.7522
lfemur -36.4134 -7.87481 -21.5969
ltibia 64.2234
lfoot -6.0334 7.35601
ltoes -4.50869
1440
root 17.1806 15.8783 -22.4517 -346.471 36.3081 726.103
lowerback -4.00641 3.53727 -0.685422
upperback -5.16871 4.75579 -1.82104
thorax -2.98264 2.39543 -1.42625
lowerneck -1.95674 -8.18076 -8.60906
upperneck 20.2335 -13.383 15.8883
head 8.209 -5.71161 5.65524
rclavicle 1.12127e-013 1.35174e-014
rhumerus -36.9231 14.4737 -92.5706
rradius 41.469
rwrist -12.4599
rhand -20.0269 32.193
rfingers 7.12502
rthumb 6.31381 2.30712
lclavicle 1.12127e-013 1.35174e-014
lhumerus -46.339 11.11 73.1596
lradius 35.9369
lwrist -26.2588
lhand 6.67632 41.6363
lfingers 7.12502
lthumb 31.9675 68.8487
rfemur -19.2609 23.2391 28.6529
rtibia 30.365
rfoot -17.2159 -26.8884
rtoes 33.6335
lfemur -36.7797 -8.69924 -21.3327
ltibia 62.9005
lfoot -6.45819 8.55733
ltoes -7.46569
